<mxfile host="app.diagrams.net" agent="Mozilla/5.0 (Windows NT 10.0; Win64; x64) AppleWebKit/537.36 (KHTML, like Gecko) Chrome/109.0.0.0 Safari/537.36" version="24.8.6">
  <diagram name="Trang-1" id="Gl2_wtPMFufecrqhvEOs">
    <mxGraphModel dx="578" dy="591" grid="0" gridSize="10" guides="1" tooltips="1" connect="1" arrows="1" fold="1" page="0" pageScale="1" pageWidth="827" pageHeight="1169" math="0" shadow="0">
      <root>
        <mxCell id="0" />
        <mxCell id="1" parent="0" />
        <mxCell id="utsX8DhTmcAYfCsDR_7W-1" style="edgeStyle=orthogonalEdgeStyle;rounded=0;orthogonalLoop=1;jettySize=auto;html=1;exitX=0.5;exitY=1;exitDx=0;exitDy=0;entryX=0.5;entryY=0;entryDx=0;entryDy=0;" edge="1" parent="1" source="utsX8DhTmcAYfCsDR_7W-2" target="utsX8DhTmcAYfCsDR_7W-4">
          <mxGeometry relative="1" as="geometry" />
        </mxCell>
        <mxCell id="utsX8DhTmcAYfCsDR_7W-2" value="Start" style="ellipse;whiteSpace=wrap;html=1;" vertex="1" parent="1">
          <mxGeometry x="330" y="70" width="120" height="80" as="geometry" />
        </mxCell>
        <mxCell id="utsX8DhTmcAYfCsDR_7W-14" style="edgeStyle=none;curved=1;rounded=0;orthogonalLoop=1;jettySize=auto;html=1;exitX=0.5;exitY=1;exitDx=0;exitDy=0;entryX=0.5;entryY=0;entryDx=0;entryDy=0;fontSize=12;startSize=8;endSize=8;" edge="1" parent="1" source="utsX8DhTmcAYfCsDR_7W-4" target="utsX8DhTmcAYfCsDR_7W-13">
          <mxGeometry relative="1" as="geometry" />
        </mxCell>
        <mxCell id="utsX8DhTmcAYfCsDR_7W-4" value="Nhập n" style="rounded=0;whiteSpace=wrap;html=1;" vertex="1" parent="1">
          <mxGeometry x="330" y="200" width="120" height="50" as="geometry" />
        </mxCell>
        <mxCell id="utsX8DhTmcAYfCsDR_7W-19" value="" style="edgeStyle=none;curved=1;rounded=0;orthogonalLoop=1;jettySize=auto;html=1;fontSize=12;startSize=8;endSize=8;" edge="1" parent="1" source="utsX8DhTmcAYfCsDR_7W-5" target="utsX8DhTmcAYfCsDR_7W-13">
          <mxGeometry relative="1" as="geometry" />
        </mxCell>
        <mxCell id="utsX8DhTmcAYfCsDR_7W-5" value="In số lẻ" style="shape=parallelogram;perimeter=parallelogramPerimeter;whiteSpace=wrap;html=1;fixedSize=1;" vertex="1" parent="1">
          <mxGeometry x="495" y="293" width="120" height="60" as="geometry" />
        </mxCell>
        <mxCell id="utsX8DhTmcAYfCsDR_7W-17" value="Yes" style="edgeStyle=none;curved=1;rounded=0;orthogonalLoop=1;jettySize=auto;html=1;exitX=1;exitY=0.5;exitDx=0;exitDy=0;entryX=0;entryY=0.5;entryDx=0;entryDy=0;fontSize=12;startSize=8;endSize=8;" edge="1" parent="1" source="utsX8DhTmcAYfCsDR_7W-13" target="utsX8DhTmcAYfCsDR_7W-5">
          <mxGeometry relative="1" as="geometry" />
        </mxCell>
        <mxCell id="utsX8DhTmcAYfCsDR_7W-18" value="No" style="edgeStyle=none;curved=1;rounded=0;orthogonalLoop=1;jettySize=auto;html=1;exitX=0;exitY=0.5;exitDx=0;exitDy=0;entryX=1;entryY=0.5;entryDx=0;entryDy=0;fontSize=12;startSize=8;endSize=8;" edge="1" parent="1" source="utsX8DhTmcAYfCsDR_7W-13" target="utsX8DhTmcAYfCsDR_7W-15">
          <mxGeometry relative="1" as="geometry" />
        </mxCell>
        <mxCell id="utsX8DhTmcAYfCsDR_7W-21" style="edgeStyle=none;curved=1;rounded=0;orthogonalLoop=1;jettySize=auto;html=1;exitX=0.5;exitY=1;exitDx=0;exitDy=0;entryX=0.5;entryY=0;entryDx=0;entryDy=0;fontSize=12;startSize=8;endSize=8;" edge="1" parent="1" source="utsX8DhTmcAYfCsDR_7W-13" target="utsX8DhTmcAYfCsDR_7W-20">
          <mxGeometry relative="1" as="geometry" />
        </mxCell>
        <mxCell id="utsX8DhTmcAYfCsDR_7W-13" value="n % 2 = 0" style="rhombus;whiteSpace=wrap;html=1;" vertex="1" parent="1">
          <mxGeometry x="350" y="283" width="80" height="80" as="geometry" />
        </mxCell>
        <mxCell id="utsX8DhTmcAYfCsDR_7W-15" value="In số lẻ" style="shape=parallelogram;perimeter=parallelogramPerimeter;whiteSpace=wrap;html=1;fixedSize=1;" vertex="1" parent="1">
          <mxGeometry x="160" y="293" width="120" height="60" as="geometry" />
        </mxCell>
        <mxCell id="utsX8DhTmcAYfCsDR_7W-20" value="END" style="ellipse;whiteSpace=wrap;html=1;aspect=fixed;" vertex="1" parent="1">
          <mxGeometry x="350" y="403" width="80" height="80" as="geometry" />
        </mxCell>
        <mxCell id="utsX8DhTmcAYfCsDR_7W-25" style="edgeStyle=none;curved=1;rounded=0;orthogonalLoop=1;jettySize=auto;html=1;exitX=1;exitY=1;exitDx=0;exitDy=0;entryX=0.125;entryY=0.238;entryDx=0;entryDy=0;entryPerimeter=0;fontSize=12;startSize=8;endSize=8;" edge="1" parent="1" source="utsX8DhTmcAYfCsDR_7W-15" target="utsX8DhTmcAYfCsDR_7W-20">
          <mxGeometry relative="1" as="geometry" />
        </mxCell>
        <mxCell id="utsX8DhTmcAYfCsDR_7W-26" style="edgeStyle=none;curved=1;rounded=0;orthogonalLoop=1;jettySize=auto;html=1;exitX=0;exitY=0.75;exitDx=0;exitDy=0;entryX=0.963;entryY=0.2;entryDx=0;entryDy=0;entryPerimeter=0;fontSize=12;startSize=8;endSize=8;" edge="1" parent="1" source="utsX8DhTmcAYfCsDR_7W-5" target="utsX8DhTmcAYfCsDR_7W-20">
          <mxGeometry relative="1" as="geometry" />
        </mxCell>
      </root>
    </mxGraphModel>
  </diagram>
</mxfile>
